<svg width="100" height="100" viewBox="0 0 100 100" xmlns="http://www.w3.org/2000/svg">
  <!-- Medical Cross Pattern -->
  <g fill="#FFFFFF" fill-opacity="0.3">
    <!-- Cross 1 -->
    <rect x="10" y="40" width="20" height="5" rx="1" />
    <rect x="17.5" y="32.5" width="5" height="20" rx="1" />
    
    <!-- Cross 2 -->
    <rect x="50" y="10" width="20" height="5" rx="1" />
    <rect x="57.5" y="2.5" width="5" height="20" rx="1" />
    
    <!-- Cross 3 -->
    <rect x="70" y="70" width="20" height="5" rx="1" />
    <rect x="77.5" y="62.5" width="5" height="20" rx="1" />
    
    <!-- Cross 4 -->
    <rect x="30" y="80" width="20" height="5" rx="1" />
    <rect x="37.5" y="72.5" width="5" height="20" rx="1" />
    
    <!-- Medical Symbol -->
    <path d="M85,25 C85,28.866 81.866,32 78,32 C74.134,32 71,28.866 71,25 C71,21.134 74.134,18 78,18 C81.866,18 85,21.134 85,25 Z" />
    <path d="M78,32 L78,42" stroke="#FFFFFF" stroke-width="2" stroke-linecap="round" />
    <path d="M73,37 L83,37" stroke="#FFFFFF" stroke-width="2" stroke-linecap="round" />
    
    <!-- Heartbeat Line -->
    <path d="M5,50 L15,50 L20,40 L25,60 L30,45 L35,50 L45,50" stroke="#FFFFFF" stroke-width="1.5" fill="none" stroke-linecap="round" />
  </g>
</svg>